<svg width="58" height="58" viewBox="0 0 58 58" fill="none" xmlns="http://www.w3.org/2000/svg">
<g id="Group 3681">
<path id="Vector" d="M55.1357 24.1663H52.5156C49.3406 26.416 45.2616 29.3058 41.5494 31.9347C40.2206 37.6386 35.1083 41.889 29 41.889C21.8819 41.889 16.1109 36.1184 16.1109 29C16.1109 21.8816 21.8819 16.1116 29 16.1116C33.0224 16.1116 36.6137 17.9546 38.9776 20.8418L51.6642 11.8638C51.6244 11.077 51.2815 10.2701 50.6451 9.63398L48.368 7.35576C47.6892 6.67739 46.817 6.33093 45.982 6.33093C45.2674 6.33093 44.5797 6.5849 44.0642 7.10178L41.1587 10.0061C38.9497 8.59012 36.4801 7.54648 33.8339 6.9701V2.86366C33.8339 1.28194 32.3909 0 30.6103 0H27.39C25.6091 0 24.1665 1.28194 24.1665 2.86366V6.9701C21.5201 7.54648 19.0503 8.59012 16.8413 10.0061L13.9364 7.10178C13.4207 6.5849 12.7331 6.33093 12.0182 6.33093C11.1832 6.33093 10.3113 6.67716 9.63221 7.35576L7.35485 9.63398C6.09639 10.8925 5.98156 12.8191 7.10196 13.9369L10.0064 16.8415C8.59034 19.0505 7.5458 21.5201 6.96856 24.1663H2.86456C1.28193 24.1663 0 25.6091 0 27.3908V30.6109C0 32.3909 1.28193 33.8337 2.86456 33.8337H6.96856C7.5458 36.4799 8.59034 38.9495 10.0064 41.1594L7.10196 44.0637C5.98156 45.1817 6.09639 47.1075 7.35485 48.3678L9.63221 50.6458C10.311 51.3232 11.183 51.6691 12.0176 51.6691C12.7326 51.6691 13.4205 51.4153 13.9364 50.8982L16.8413 47.9939C19.0503 49.4099 21.5201 50.4542 24.1665 51.0317V55.1363C24.1665 56.7181 25.6091 58 27.39 58H30.6103C32.3909 58 33.8339 56.7181 33.8339 55.1363V51.0317C36.4801 50.4542 38.9497 49.4099 41.1587 47.9939L44.0642 50.8982C44.5797 51.4151 45.2678 51.6691 45.9829 51.6691C46.8175 51.6691 47.6892 51.3232 48.368 50.6458L50.6451 48.3678C51.9036 47.1075 52.0187 45.1817 50.8987 44.0637L47.9941 41.1594C49.4101 38.9495 50.4548 36.4799 51.0319 33.8337H55.1357C56.7181 33.8337 58 32.3909 58 30.6109V27.3908C58 25.6091 56.7181 24.1663 55.1357 24.1663Z" fill="url(#paint0_linear_0_242)"/>
<path id="Vector_2" d="M57.542 15.3248L56.4105 13.7265C55.9507 13.076 55.2034 12.6875 54.4113 12.6875C53.8922 12.6875 53.3953 12.8501 52.9838 13.1504L31.9918 28.0063C31.8152 28.1418 31.6037 28.2814 31.4311 28.3809C31.3939 28.3281 31.3577 28.2736 31.3249 28.2223L27.776 23.4169C27.3161 22.7664 26.5684 22.3779 25.7763 22.3779C25.2573 22.3779 24.7602 22.5407 24.3384 22.849L22.7665 23.9984C21.6754 24.7953 21.425 26.3445 22.2177 27.4652C22.262 27.5256 26.6691 33.5204 28.594 36.2527C28.9927 36.8184 29.6443 37.1562 30.3377 37.1562H30.3381C30.793 37.1562 31.2422 37.0091 31.6369 36.7304C36.5806 33.2381 56.9729 18.7867 56.984 18.7788C58.0744 17.9816 58.3248 16.4324 57.542 15.3248Z" fill="url(#paint1_linear_0_242)"/>
</g>
<defs>
<linearGradient id="paint0_linear_0_242" x1="29" y1="1.3113e-06" x2="73" y2="71" gradientUnits="userSpaceOnUse">
<stop stop-color="#31B5D1"/>
<stop offset="1" stop-color="#31B5D0"/>
</linearGradient>
<linearGradient id="paint1_linear_0_242" x1="39.876" y1="12.6875" x2="54.6369" y2="47.9685" gradientUnits="userSpaceOnUse">
<stop stop-color="#31B5D1"/>
<stop offset="1" stop-color="#31B5D0"/>
</linearGradient>
</defs>
</svg>
