<svg width="52" height="54" viewBox="0 0 52 54" fill="none" xmlns="http://www.w3.org/2000/svg">
<g id="Group 3686">
<path id="Vector" fill-rule="evenodd" clip-rule="evenodd" d="M12.2733 34.7079C12.2785 34.5326 12.3518 34.3662 12.4776 34.244C12.6035 34.1219 12.772 34.0535 12.9474 34.0535C13.1228 34.0535 13.2913 34.1219 13.4172 34.244C13.543 34.3662 13.6163 34.5326 13.6216 34.7079V35.8073C13.6216 35.8958 13.6041 35.9835 13.5703 36.0652C13.5364 36.147 13.4868 36.2213 13.4242 36.2838C13.3616 36.3464 13.2873 36.396 13.2056 36.4299C13.1238 36.4638 13.0362 36.4812 12.9477 36.4812H6.22825C6.1397 36.4813 6.05201 36.4639 5.97019 36.4301C5.88836 36.3963 5.81401 36.3466 5.75137 36.284C5.68874 36.2215 5.63905 36.1472 5.60514 36.0654C5.57124 35.9836 5.55379 35.8959 5.55379 35.8073V29.0867C5.55379 28.9078 5.62485 28.7363 5.75134 28.6098C5.87782 28.4833 6.04937 28.4122 6.22825 28.4122H11.3833C11.5622 28.4122 11.7338 28.4833 11.8602 28.6098C11.9867 28.7363 12.0578 28.9078 12.0578 29.0867C12.0578 29.2656 11.9867 29.4371 11.8602 29.5636C11.7338 29.6901 11.5622 29.7611 11.3833 29.7611H6.90151V35.1329H12.2733V34.7079ZM12.2733 23.1628C12.2706 23.0726 12.286 22.9828 12.3187 22.8986C12.3514 22.8145 12.4006 22.7378 12.4635 22.673C12.5263 22.6083 12.6016 22.5568 12.6847 22.5216C12.7678 22.4864 12.8572 22.4683 12.9474 22.4683C13.0377 22.4683 13.127 22.4864 13.2101 22.5216C13.2933 22.5568 13.3685 22.6083 13.4314 22.673C13.4942 22.7378 13.5435 22.8145 13.5761 22.8986C13.6088 22.9828 13.6243 23.0726 13.6216 23.1628V24.2617C13.6216 24.4404 13.5506 24.6119 13.4242 24.7384C13.2979 24.8648 13.1265 24.936 12.9477 24.9361H6.22825C6.04937 24.9361 5.87782 24.8651 5.75134 24.7386C5.62485 24.6121 5.55379 24.4405 5.55379 24.2617V17.5416C5.55379 17.3627 5.62485 17.1912 5.75134 17.0647C5.87782 16.9382 6.04937 16.8672 6.22825 16.8672H11.3833C11.4736 16.8645 11.5634 16.8799 11.6475 16.9126C11.7317 16.9453 11.8084 16.9945 11.8732 17.0574C11.9379 17.1202 11.9894 17.1954 12.0246 17.2786C12.0597 17.3617 12.0779 17.451 12.0779 17.5413C12.0779 17.6316 12.0597 17.7209 12.0246 17.804C11.9894 17.8872 11.9379 17.9624 11.8732 18.0253C11.8084 18.0881 11.7317 18.1374 11.6475 18.17C11.5634 18.2027 11.4736 18.2181 11.3833 18.2155H6.90151V23.5872H12.2733V23.1622V23.1628ZM16.1153 4.05493H14.3712V8.26161H25.8817V4.05493H24.1359C23.957 4.05493 23.7854 3.98387 23.659 3.85739C23.5325 3.7309 23.4614 3.55935 23.4614 3.38048C23.4673 2.93869 23.3854 2.50013 23.2204 2.09026C23.0555 1.68039 22.8107 1.30738 22.5004 0.992879C22.1901 0.678378 21.8204 0.428657 21.4127 0.258213C21.0051 0.0877697 20.5677 0 20.1259 0C19.684 0 19.2466 0.0877697 18.839 0.258213C18.4314 0.428657 18.0617 0.678378 17.7513 0.992879C17.441 1.30738 17.1963 1.68039 17.0313 2.09026C16.8663 2.50013 16.7844 2.93869 16.7903 3.38048C16.7903 3.55925 16.7193 3.73071 16.593 3.85718C16.4666 3.98364 16.2952 4.05477 16.1164 4.05493H16.1153ZM17.2642 34.77C17.0853 34.77 16.9138 34.6989 16.7873 34.5725C16.6608 34.446 16.5898 34.2744 16.5898 34.0956C16.5898 33.9167 16.6608 33.7451 16.7873 33.6186C16.9138 33.4922 17.0853 33.4211 17.2642 33.4211H23.4173C23.5961 33.4211 23.7677 33.4922 23.8942 33.6186C24.0206 33.7451 24.0917 33.9167 24.0917 34.0956C24.0917 34.2744 24.0206 34.446 23.8942 34.5725C23.7677 34.6989 23.5961 34.77 23.4173 34.77H17.2642ZM17.2642 31.5016C17.174 31.5043 17.0842 31.4888 17 31.4562C16.9159 31.4235 16.8391 31.3743 16.7744 31.3114C16.7096 31.2485 16.6581 31.1733 16.623 31.0902C16.5878 31.007 16.5697 30.9177 16.5697 30.8274C16.5697 30.7372 16.5878 30.6478 16.623 30.5647C16.6581 30.4816 16.7096 30.4064 16.7744 30.3435C16.8391 30.2806 16.9159 30.2314 17 30.1987C17.0842 30.166 17.174 30.1506 17.2642 30.1533H22.214C22.3042 30.1506 22.394 30.166 22.4782 30.1987C22.5623 30.2314 22.639 30.2806 22.7038 30.3435C22.7686 30.4064 22.8201 30.4816 22.8552 30.5647C22.8904 30.6478 22.9085 30.7372 22.9085 30.8274C22.9085 30.9177 22.8904 31.007 22.8552 31.0902C22.8201 31.1733 22.7686 31.2485 22.7038 31.3114C22.639 31.3743 22.5623 31.4235 22.4782 31.4562C22.394 31.4888 22.3042 31.5043 22.214 31.5016H17.2642ZM17.2642 23.2243C17.174 23.227 17.0842 23.2116 17 23.1789C16.9159 23.1462 16.8391 23.097 16.7744 23.0341C16.7096 22.9713 16.6581 22.896 16.623 22.8129C16.5878 22.7298 16.5697 22.6404 16.5697 22.5502C16.5697 22.4599 16.5878 22.3706 16.623 22.2874C16.6581 22.2043 16.7096 22.1291 16.7744 22.0662C16.8391 22.0033 16.9159 21.9541 17 21.9214C17.0842 21.8888 17.174 21.8733 17.2642 21.876H22.9875C23.0777 21.8733 23.1676 21.8888 23.2517 21.9214C23.3358 21.9541 23.4126 22.0033 23.4773 22.0662C23.5421 22.1291 23.5936 22.2043 23.6287 22.2874C23.6639 22.3706 23.682 22.4599 23.682 22.5502C23.682 22.6404 23.6639 22.7298 23.6287 22.8129C23.5936 22.896 23.5421 22.9713 23.4773 23.0341C23.4126 23.097 23.3358 23.1462 23.2517 23.1789C23.1676 23.2116 23.0777 23.227 22.9875 23.2243H17.2642ZM17.2642 19.9565C17.174 19.9592 17.0842 19.9437 17 19.9111C16.9159 19.8784 16.8391 19.8292 16.7744 19.7663C16.7096 19.7034 16.6581 19.6282 16.623 19.5451C16.5878 19.462 16.5697 19.3726 16.5697 19.2824C16.5697 19.1921 16.5878 19.1028 16.623 19.0196C16.6581 18.9365 16.7096 18.8613 16.7744 18.7984C16.8391 18.7355 16.9159 18.6863 17 18.6536C17.0842 18.621 17.174 18.6055 17.2642 18.6082H23.4256C23.6009 18.6134 23.7673 18.6867 23.8895 18.8126C24.0117 18.9384 24.08 19.1069 24.08 19.2824C24.08 19.4578 24.0117 19.6263 23.8895 19.7521C23.7673 19.878 23.6009 19.9513 23.4256 19.9565H17.2642ZM7.88513 20.6131L10.0052 22.7361C10.0678 22.7989 10.1423 22.8487 10.2242 22.8827C10.3061 22.9167 10.394 22.9342 10.4827 22.9342C10.5714 22.9342 10.6592 22.9167 10.7412 22.8827C10.8231 22.8487 10.8975 22.7989 10.9602 22.7361L16.8398 16.8564C16.9665 16.7298 17.0376 16.558 17.0376 16.3789C17.0376 16.1998 16.9665 16.0281 16.8398 15.9014C16.7132 15.7748 16.5414 15.7036 16.3624 15.7036C16.1833 15.7036 16.0115 15.7748 15.8849 15.9014L10.4827 21.306L8.83832 19.6623C8.71168 19.5356 8.53992 19.4645 8.36083 19.4645C8.18174 19.4645 8.00998 19.5356 7.88334 19.6623C7.7567 19.7889 7.68556 19.9606 7.68556 20.1397C7.68556 20.3188 7.7567 20.4906 7.88334 20.6172L7.88513 20.6131ZM7.88513 43.7038C7.7585 43.5772 7.68735 43.4054 7.68735 43.2263C7.68735 43.0472 7.7585 42.8755 7.88513 42.7488C8.01177 42.6222 8.18353 42.5511 8.36262 42.5511C8.54171 42.5511 8.71347 42.6222 8.84011 42.7488L10.4827 44.3968L15.8861 38.9934C16.0127 38.8668 16.1845 38.7956 16.3635 38.7956C16.5426 38.7956 16.7144 38.8668 16.841 38.9934C16.9677 39.12 17.0388 39.2918 17.0388 39.4709C17.0388 39.65 16.9677 39.8217 16.841 39.9484L10.9602 45.8269C10.8975 45.8897 10.8231 45.9395 10.7412 45.9735C10.6592 46.0075 10.5714 46.025 10.4827 46.025C10.394 46.025 10.3061 46.0075 10.2242 45.9735C10.1423 45.9395 10.0678 45.8897 10.0052 45.8269L7.88454 43.7062L7.88513 43.7038ZM7.88513 32.1581L10.0052 34.2818C10.0678 34.3446 10.1423 34.3944 10.2242 34.4284C10.3061 34.4624 10.394 34.4799 10.4827 34.4799C10.5714 34.4799 10.6592 34.4624 10.7412 34.4284C10.8231 34.3944 10.8975 34.3446 10.9602 34.2818L16.8392 28.4015C16.9659 28.2749 17.037 28.1031 17.037 27.924C17.037 27.7449 16.9659 27.5732 16.8392 27.4465C16.7126 27.3199 16.5408 27.2487 16.3618 27.2487C16.1827 27.2487 16.0109 27.3199 15.8843 27.4465L10.4827 32.8517L8.83832 31.2073C8.71168 31.0807 8.53992 31.0096 8.36083 31.0096C8.18174 31.0096 8.00998 31.0807 7.88334 31.2073C7.7567 31.334 7.68556 31.5057 7.68556 31.6848C7.68556 31.8639 7.7567 32.0357 7.88334 32.1623L7.88513 32.1581ZM12.5717 13.4471C12.3964 13.4419 12.23 13.3686 12.1078 13.2427C11.9856 13.1169 11.9173 12.9484 11.9173 12.773C11.9173 12.5976 11.9856 12.4291 12.1078 12.3032C12.23 12.1774 12.3964 12.104 12.5717 12.0988H27.68C27.7703 12.0961 27.8601 12.1116 27.9442 12.1443C28.0284 12.1769 28.1051 12.2262 28.1699 12.289C28.2346 12.3519 28.2861 12.4271 28.3213 12.5103C28.3564 12.5934 28.3745 12.6827 28.3745 12.773C28.3745 12.8632 28.3564 12.9526 28.3213 13.0357C28.2861 13.1188 28.2346 13.1941 28.1699 13.2569C28.1051 13.3198 28.0284 13.369 27.9442 13.4017C27.8601 13.4344 27.7703 13.4498 27.68 13.4471H12.5717ZM17.2642 46.3151H33.0154C33.1907 46.3099 33.3571 46.2366 33.4793 46.1107C33.6014 45.9848 33.6698 45.8163 33.6698 45.6409C33.6698 45.4655 33.6014 45.297 33.4793 45.1712C33.3571 45.0453 33.1907 44.972 33.0154 44.9668H17.2642C17.174 44.9641 17.0842 44.9795 17 45.0122C16.9159 45.0449 16.8391 45.0941 16.7744 45.157C16.7096 45.2199 16.6581 45.2951 16.623 45.3782C16.5878 45.4613 16.5697 45.5507 16.5697 45.6409C16.5697 45.7312 16.5878 45.8205 16.623 45.9037C16.6581 45.9868 16.7096 46.062 16.7744 46.1249C16.8391 46.1878 16.9159 46.237 17 46.2697C17.0842 46.3023 17.174 46.3178 17.2642 46.3151ZM17.2642 43.0473H23.4256C23.6045 43.0473 23.776 42.9762 23.9025 42.8497C24.029 42.7233 24.1001 42.5517 24.1001 42.3728C24.1001 42.1939 24.029 42.0224 23.9025 41.8959C23.776 41.7694 23.6045 41.6984 23.4256 41.6984H17.2642C17.0853 41.6984 16.9138 41.7694 16.7873 41.8959C16.6608 42.0224 16.5898 42.1939 16.5898 42.3728C16.5898 42.5517 16.6608 42.7233 16.7873 42.8497C16.9138 42.9762 17.0853 43.0473 17.2642 43.0473ZM45.22 37.9489C45.0379 37.9482 44.8575 37.9835 44.6891 38.0528C44.5208 38.122 44.3677 38.2238 44.2388 38.3524C43.9799 38.6132 43.8346 38.9658 43.8346 39.3333C43.8346 39.7008 43.9799 40.0534 44.2388 40.3143L49.6344 45.7105C49.8952 45.9694 50.2478 46.1146 50.6153 46.1146C50.9828 46.1146 51.3354 45.9694 51.5963 45.7105C51.8549 45.4494 52 45.0967 52 44.7292C52 44.3617 51.8549 44.0091 51.5963 43.748L46.2 38.3518C46.0711 38.2232 45.918 38.1214 45.7497 38.0522C45.5813 37.9829 45.4009 37.9476 45.2188 37.9483L45.22 37.9489ZM33.9883 22.4478C32.8701 22.4476 31.777 22.779 30.8471 23.4001C29.9173 24.0212 29.1925 24.9041 28.7645 25.9371C28.3364 26.9701 28.2243 28.1068 28.4423 29.2035C28.6604 30.3003 29.1987 31.3077 29.9893 32.0984C31.0496 33.1583 32.4873 33.7536 33.9865 33.7536C35.4856 33.7536 36.9234 33.1583 37.9836 32.0984C38.7742 31.3077 39.3126 30.3003 39.5306 29.2035C39.7486 28.1068 39.6365 26.9701 39.2084 25.9371C38.7804 24.9041 38.0556 24.0212 37.1258 23.4001C36.196 22.779 35.1029 22.4476 33.9847 22.4478H33.9883ZM29.0373 23.1503C29.6862 22.4946 30.4582 21.9736 31.3091 21.6172C32.1599 21.2609 33.0728 21.0762 33.9953 21.0737C34.9178 21.0713 35.8316 21.2512 36.6844 21.6031C37.5371 21.955 38.3119 22.4719 38.9642 23.1242C39.6165 23.7764 40.1335 24.5512 40.4854 25.4039C40.8373 26.2566 41.0173 27.1704 41.0149 28.0929C41.0125 29.0154 40.8279 29.9283 40.4716 30.7792C40.1152 31.6301 39.5943 32.4021 38.9386 33.051C38.2885 33.7013 37.5167 34.217 36.6673 34.5689C35.8179 34.9208 34.9074 35.102 33.988 35.102C33.0685 35.102 32.1581 34.9208 31.3086 34.5689C30.4592 34.217 29.6874 33.7013 29.0373 33.051C28.3871 32.401 27.8713 31.6292 27.5194 30.7797C27.1675 29.9303 26.9864 29.0198 26.9864 28.1004C26.9864 27.1809 27.1675 26.2705 27.5194 25.421C27.8713 24.5716 28.3871 23.7998 29.0373 23.1497V23.1503ZM33.9883 19.7792C35.9135 19.7794 37.7791 20.4471 39.2672 21.6685C40.7553 22.8899 41.7738 24.5896 42.1493 26.4778C42.5248 28.366 42.2339 30.326 41.3262 32.0239C40.4186 33.7217 38.9503 35.0523 37.1716 35.7889C35.3929 36.5255 33.4138 36.6226 31.5716 36.0637C29.7293 35.5047 28.1378 34.3242 27.0683 32.7234C25.9989 31.1226 25.5175 29.2005 25.7063 27.2846C25.8951 25.3687 26.7424 23.5775 28.1038 22.2162C28.8758 21.4424 29.793 20.8288 30.8029 20.4106C31.8127 19.9923 32.8952 19.7778 33.9883 19.7792ZM39.1159 36.3021C38.7665 36.5209 38.4035 36.7171 38.029 36.8895V50.8644C38.029 51.0432 37.958 51.2148 37.8315 51.3413C37.705 51.4678 37.5334 51.5388 37.3546 51.5388H2.89716C2.80862 51.5388 2.72095 51.5214 2.63915 51.4875C2.55736 51.4536 2.48305 51.4039 2.42046 51.3412C2.35788 51.2786 2.30826 51.2042 2.27443 51.1224C2.2406 51.0406 2.22323 50.9529 2.22331 50.8644V7.94408C2.22323 7.85554 2.2406 7.76785 2.27443 7.68602C2.30826 7.6042 2.35788 7.52984 2.42046 7.4672C2.48305 7.40457 2.55736 7.35488 2.63915 7.32098C2.72095 7.28708 2.80862 7.26962 2.89716 7.26962H13.0229V5.04632H0V53.7621H40.2517V37.4386L39.1177 36.3045L39.1159 36.3021ZM41.384 34.3325L43.9594 36.908C43.7118 37.0362 43.4854 37.2017 43.288 37.3986C43.0901 37.5967 42.9239 37.8239 42.7949 38.0724L40.2177 35.4982C40.4266 35.3219 40.6293 35.1357 40.8259 34.9395C41.0225 34.7433 41.2087 34.5406 41.3846 34.3313L41.384 34.3325ZM38.029 19.3125C38.8316 19.6818 39.5795 20.1598 40.2517 20.733V5.04632H27.2294V7.26962H37.3546C37.5334 7.26962 37.705 7.34068 37.8315 7.46717C37.958 7.59365 38.029 7.7652 38.029 7.94408V19.3125ZM27.15 21.263C28.3742 20.0396 29.9041 19.1668 31.5802 18.7356C33.2564 18.3043 35.0175 18.3304 36.6801 18.8111V8.61793H27.2294V8.93785C27.2292 9.11662 27.1581 9.28802 27.0317 9.41438C26.9052 9.54073 26.7337 9.61171 26.555 9.61171H13.6968C13.5181 9.61171 13.3467 9.54071 13.2203 9.41434C13.0939 9.28797 13.0229 9.11657 13.0229 8.93785V8.61973H3.57162V50.1899H36.6801V37.3908C34.6188 37.99 32.4166 37.8861 30.4208 37.0956C28.425 36.3052 26.749 34.873 25.6569 33.0249C24.5649 31.1768 24.1189 29.0178 24.3892 26.8883C24.6595 24.7587 25.6308 22.7797 27.15 21.263ZM12.2733 46.2536V46.678H6.90151V41.3062H11.3821C11.4724 41.3089 11.5622 41.2935 11.6463 41.2608C11.7305 41.2281 11.8072 41.1789 11.872 41.116C11.9367 41.0532 11.9882 40.9779 12.0234 40.8948C12.0585 40.8117 12.0767 40.7223 12.0767 40.6321C12.0767 40.5418 12.0585 40.4525 12.0234 40.3694C11.9882 40.2862 11.9367 40.211 11.872 40.1481C11.8072 40.0853 11.7305 40.036 11.6463 40.0034C11.5622 39.9707 11.4724 39.9552 11.3821 39.9579H6.22825C6.13975 39.9578 6.05211 39.9752 5.97033 40.009C5.88854 40.0428 5.81421 40.0924 5.75158 40.1549C5.68895 40.2174 5.63925 40.2916 5.60532 40.3734C5.57138 40.4551 5.55387 40.5427 5.55379 40.6312V47.3518C5.55379 47.5307 5.62485 47.7023 5.75134 47.8287C5.87782 47.9552 6.04937 48.0263 6.22825 48.0263H12.9489C13.1277 48.0261 13.2991 47.955 13.4254 47.8285C13.5518 47.7021 13.6228 47.5306 13.6228 47.3518V46.2536C13.6254 46.1634 13.61 46.0736 13.5773 45.9894C13.5447 45.9053 13.4954 45.8286 13.4326 45.7638C13.3697 45.699 13.2945 45.6475 13.2113 45.6124C13.1282 45.5772 13.0389 45.5591 12.9486 45.5591C12.8583 45.5591 12.769 45.5772 12.6859 45.6124C12.6027 45.6475 12.5275 45.699 12.4647 45.7638C12.4018 45.8286 12.3526 45.9053 12.3199 45.9894C12.2872 46.0736 12.2718 46.1634 12.2745 46.2536H12.2733Z" fill="url(#paint0_linear_0_255)"/>
</g>
<defs>
<linearGradient id="paint0_linear_0_255" x1="26" y1="0" x2="26" y2="53.7621" gradientUnits="userSpaceOnUse">
<stop stop-color="#2DA3ED"/>
<stop offset="1" stop-color="#3FC4DE"/>
</linearGradient>
</defs>
</svg>
