<svg width="63" height="60" viewBox="0 0 63 60" fill="none" xmlns="http://www.w3.org/2000/svg">
<g id="Group 3683">
<g id="Group">
<g id="Group_2">
<path id="Vector" d="M60.6637 33.4949C58.6031 33.0487 56.3324 30.4631 55.6368 29.505C55.3874 29.1768 54.9937 28.9668 54.5737 28.9668H52.0536V43.483H62.9999V36.5137C62.9999 35.07 62.0155 33.7968 60.6637 33.4949Z" fill="url(#paint0_linear_0_228)"/>
</g>
<g id="Group_3">
<path id="Vector_2" d="M45.8457 29.505C45.1501 30.4631 42.8926 33.0487 40.8188 33.4949C39.467 33.7968 38.4826 35.07 38.4826 36.5137V43.483H49.4288V28.9668H46.9088C46.4888 28.9668 46.0951 29.1768 45.8457 29.505Z" fill="url(#paint1_linear_0_228)"/>
</g>
<g id="Group_4">
<path id="Vector_3" d="M38.4826 46.9088C38.4826 49.4944 39.6245 51.9095 41.6326 53.5501L49.4288 59.9157V59.2988V46.1082H38.4826V46.9088Z" fill="url(#paint2_linear_0_228)"/>
</g>
<g id="Group_5">
<path id="Vector_4" d="M52.0536 59.9157L59.8499 53.5501C61.8581 51.9095 62.9999 49.4944 62.9999 46.9088V46.1082H52.0536V59.9157Z" fill="url(#paint3_linear_0_228)"/>
</g>
<g id="Group_6">
<path id="Vector_5" d="M55.4794 3.9375C55.4794 1.75879 53.7075 0 51.5419 0H3.9375C1.77184 0 0 1.75879 0 3.9375V9.22691H55.4794V3.9375Z" fill="url(#paint4_linear_0_228)"/>
</g>
<g id="Group_7">
<path id="Vector_6" d="M43.7194 27.9562C44.5068 26.9324 45.6881 26.3418 46.9087 26.3418H52.0537V11.8518H3.42561V42.1705C3.42561 44.3362 5.19753 46.108 7.36311 46.108H35.8575V36.5137C35.8575 33.8493 37.7081 31.4999 40.2412 30.9355C41.1338 30.7387 42.84 29.1768 43.7194 27.9562ZM20.9869 26.158C20.7375 26.4205 20.3962 26.5518 20.055 26.5518C19.7269 26.5518 19.3857 26.4205 19.1363 26.158L17.43 24.4649V34.033C17.43 34.7549 16.8525 35.3455 16.1175 35.3455C15.3956 35.3455 14.805 34.7549 14.805 34.033V24.4649L13.1119 26.158C12.6 26.6699 11.7732 26.6699 11.2613 26.158C10.7494 25.6462 10.7494 24.8193 11.2613 24.3074L15.1988 20.3699C15.3169 20.2518 15.4613 20.1468 15.6188 20.0812C15.9469 19.9499 16.3012 19.9499 16.6294 20.0812C16.7868 20.1468 16.9313 20.2518 17.0494 20.3699L20.9869 24.3074C21.4988 24.8193 21.4988 25.6462 20.9869 26.158ZM32.7994 31.0143L28.8619 34.9518C28.7438 35.0831 28.5993 35.175 28.4419 35.2406C28.2712 35.3062 28.1006 35.3455 27.93 35.3455C27.7594 35.3455 27.5888 35.3062 27.4313 35.2406C27.2738 35.175 27.1294 35.0831 27.0113 34.9518L23.0738 31.0143C22.5619 30.5025 22.5619 29.6756 23.0738 29.1637C23.5857 28.6518 24.4125 28.6518 24.9244 29.1637L26.6175 30.8568V21.3018C26.6175 20.5668 27.2081 19.9893 27.93 19.9893C28.665 19.9893 29.2425 20.5668 29.2425 21.3018V30.8568L30.9488 29.1637C31.4607 28.6518 32.2875 28.6518 32.7994 29.1637C33.3113 29.6756 33.3113 30.5025 32.7994 31.0143Z" fill="url(#paint5_linear_0_228)"/>
</g>
</g>
</g>
<defs>
<linearGradient id="paint0_linear_0_228" x1="51.4455" y1="27.392" x2="68.5911" y2="38.804" gradientUnits="userSpaceOnUse">
<stop stop-color="#32BCC2"/>
<stop offset="1" stop-color="#31B5D0"/>
</linearGradient>
<linearGradient id="paint1_linear_0_228" x1="37.8745" y1="27.392" x2="55.02" y2="38.8038" gradientUnits="userSpaceOnUse">
<stop stop-color="#32BCC2"/>
<stop offset="1" stop-color="#31B5D0"/>
</linearGradient>
<linearGradient id="paint2_linear_0_228" x1="37.8745" y1="44.6102" x2="54.4831" y2="56.2322" gradientUnits="userSpaceOnUse">
<stop stop-color="#32BCC2"/>
<stop offset="1" stop-color="#31B5D0"/>
</linearGradient>
<linearGradient id="paint3_linear_0_228" x1="51.4455" y1="44.6102" x2="68.0542" y2="56.2323" gradientUnits="userSpaceOnUse">
<stop stop-color="#32BCC2"/>
<stop offset="1" stop-color="#31B5D0"/>
</linearGradient>
<linearGradient id="paint4_linear_0_228" x1="-3.08219" y1="-1.00099" x2="1.21705" y2="21.8163" gradientUnits="userSpaceOnUse">
<stop stop-color="#32BCC2"/>
<stop offset="1" stop-color="#31B5D0"/>
</linearGradient>
<linearGradient id="paint5_linear_0_228" x1="0.724043" y1="8.13549" x2="43.4918" y2="61.7226" gradientUnits="userSpaceOnUse">
<stop stop-color="#32BCC2"/>
<stop offset="1" stop-color="#31B5D0"/>
</linearGradient>
</defs>
</svg>
