<svg width="55" height="55" viewBox="0 0 55 55" fill="none" xmlns="http://www.w3.org/2000/svg">
<g id="Group 3682">
<g id="Group">
<path id="Vector" d="M13.75 0C10.6689 0 8.75 2.23304 8.75 5V42.5H1.25C0.559673 42.5001 6.9e-05 43.0597 0 43.75V47.5C0 51.6334 3.36662 55 7.5 55H40.625C44.246 55 46.25 51.7037 46.25 49.375C46.25 35.8333 46.25 22.2917 46.25 8.75V5.625C46.25 3.87212 47.6221 2.5 49.375 2.5C51.1279 2.5 52.5 3.87212 52.5 5.625V21.25H50C49.3096 21.25 48.75 21.8097 48.75 22.5C48.75 23.1903 49.3096 23.75 50 23.75H53.75C54.4403 23.7499 54.9999 23.1903 55 22.5V5.625C55 2.27742 52.2963 0 49.375 0H13.75ZM16.25 10H31.25C31.9404 10 32.5 10.5597 32.5 11.25C32.5 11.9403 31.9404 12.5 31.25 12.5H16.25C15.5596 12.5 15 11.9403 15 11.25C15 10.5597 15.5596 10 16.25 10ZM16.25 17.5H38.75C39.4404 17.5 40 18.0597 40 18.75C40 19.4403 39.4404 20 38.75 20H16.25C15.5596 20 15 19.4403 15 18.75C15 18.0597 15.5596 17.5 16.25 17.5ZM16.25 25H31.25C31.9404 25 32.5 25.5597 32.5 26.25C32.5 26.9403 31.9404 27.5 31.25 27.5H16.25C15.5596 27.5 15 26.9403 15 26.25C15 25.5597 15.5596 25 16.25 25ZM16.25 32.5H38.75C39.4404 32.5 40 33.0597 40 33.75C40 34.4403 39.4404 35 38.75 35H16.25C15.5596 35 15 34.4403 15 33.75C15 33.0597 15.5596 32.5 16.25 32.5ZM2.5 45H35V49.375C35 50.5297 35.3546 51.6046 35.957 52.5H7.5C4.70838 52.5 2.5 50.2916 2.5 47.5V45Z" fill="url(#paint0_linear_0_225)"/>
</g>
</g>
<defs>
<linearGradient id="paint0_linear_0_225" x1="27.5" y1="1.60933e-06" x2="81.5" y2="67" gradientUnits="userSpaceOnUse">
<stop stop-color="#31B4D3"/>
<stop offset="1" stop-color="#31B4D2"/>
</linearGradient>
</defs>
</svg>
