<svg width="82" height="21" viewBox="0 0 82 21" fill="none" xmlns="http://www.w3.org/2000/svg">
<g id="Group 3540">
<path id="Vector" d="M77.4084 0.000147995H81.2703C81.4064 -0.0026191 81.5404 0.033467 81.6566 0.10417C81.7728 0.174873 81.8665 0.277259 81.9266 0.399308C81.9866 0.521357 82.0106 0.658003 81.9957 0.793206C81.9808 0.928409 81.9277 1.05656 81.8424 1.16261L74.5477 10.4437L81.8424 19.7162C81.9267 19.8217 81.9794 19.9489 81.9944 20.0831C82.0093 20.2173 81.986 20.353 81.927 20.4744C81.8681 20.5959 81.7759 20.6982 81.6612 20.7695C81.5465 20.8408 81.414 20.8781 81.2789 20.8773H77.417C77.0707 20.8771 76.729 20.7988 76.4172 20.6483C76.1054 20.4978 75.8316 20.2789 75.6161 20.0079L71.5697 14.9105C71.4276 14.731 71.35 14.5089 71.3494 14.28V6.60601C71.3494 6.37765 71.4265 6.15596 71.5683 5.97688L75.599 0.872352C75.8149 0.599623 76.09 0.379429 76.4034 0.22835C76.7168 0.0772706 77.0604 -0.00075586 77.4084 0.000147995Z" fill="#F7F7F7"/>
<path id="Vector_2" d="M74.5433 10.4439L71.3465 6.58331C71.3497 6.3605 71.4272 6.14513 71.5668 5.97134L71.6369 5.88269H78.1263L74.5433 10.4439Z" fill="#E0E0E0"/>
<path id="Vector_3" d="M64.0137 20.8771H60.1517C60.0159 20.8797 59.8822 20.8435 59.7663 20.7729C59.6503 20.7022 59.5568 20.6 59.4968 20.4783C59.4368 20.3565 59.4127 20.2201 59.4274 20.0851C59.442 19.9502 59.4948 19.8222 59.5796 19.7161L66.8744 10.435L59.5796 1.16249C59.4949 1.057 59.4419 0.929658 59.4266 0.795244C59.4114 0.660831 59.4347 0.524864 59.4937 0.403135C59.5527 0.281407 59.6451 0.178914 59.76 0.107559C59.875 0.0362034 60.0078 -0.00108568 60.1432 2.40674e-05H64.0051C64.3517 -7.47709e-05 64.6939 0.078203 65.006 0.228998C65.3181 0.379793 65.592 0.599199 65.8073 0.870797L69.8523 5.96818C69.9952 6.14729 70.0729 6.36966 70.0726 6.59874V14.2713C70.0725 14.5 69.9954 14.7221 69.8538 14.9018L65.8116 20.0049C65.5969 20.2761 65.3237 20.4954 65.0124 20.6464C64.7011 20.7975 64.3597 20.8763 64.0137 20.8771Z" fill="#32BFBD"/>
<path id="Vector_4" d="M66.8751 10.4347L70.0719 14.2953C70.0694 14.5184 69.9924 14.7343 69.8531 14.9087L69.783 14.9959H63.2993L66.8751 10.4347Z" fill="#009F9B"/>
<path id="Vector_5" fill-rule="evenodd" clip-rule="evenodd" d="M40.8323 13.3203C40.8323 9.2424 43.979 5.71069 48.7879 5.71069C53.9528 5.71069 56.7434 9.41684 56.7434 13.306L52.8572 13.296C52.8572 10.6751 50.8132 8.97788 48.7092 8.97788C46.2018 8.97788 44.4325 10.921 44.4325 13.2745C44.4325 15.4536 46.2647 17.4025 48.692 17.4025C51.0793 17.4025 52.8529 15.3492 52.8529 13.296L56.7363 13.306C56.7363 16.4145 54.8296 20.8956 48.5948 20.8956C43.9318 20.8956 40.8323 17.2395 40.8323 13.3203Z" fill="#F7F7F7"/>
<path id="Vector_6" d="M56.7432 13.2317L52.8412 6.65448V0.822159C52.8416 0.604225 52.9283 0.395325 53.0825 0.241222C53.2366 0.0871196 53.4456 0.00037803 53.6636 0H55.9207C56.1388 0 56.348 0.086621 56.5023 0.240806C56.6565 0.39499 56.7432 0.604109 56.7432 0.822159V13.2317Z" fill="#F7F7F7"/>
<path id="Vector_7" d="M28.0337 14.4458H38.6182C39.1632 14.4458 39.5265 14.1799 39.5837 13.6351C39.5966 13.4392 39.6109 13.229 39.6109 13.0475C39.6109 9.00672 36.4498 5.72095 32.0157 5.72095C27.5259 5.72095 24.1403 9.06249 24.1403 13.2991C24.1403 17.5357 27.4301 20.8773 32.3791 20.8773C35.0238 20.8773 36.9562 19.8849 38.4637 18.4465C38.87 18.0405 38.8414 17.5786 38.4366 17.174L37.7514 16.4891C37.3595 16.0973 36.9261 16.083 36.4784 16.4319C35.317 17.3413 34.0297 17.8174 32.3662 17.8174C30.0476 17.816 28.3698 16.4591 28.0337 14.4458ZM31.9914 8.78938C33.8666 8.78938 35.2369 9.99188 35.6574 11.712H28.1309C28.3637 10.8682 28.8681 10.1245 29.5663 9.5962C30.2644 9.06788 31.1173 8.78431 31.9929 8.78938H31.9914Z" fill="#F7F7F7"/>
<path id="Vector_8" d="M24.1067 6.74897C24.1252 6.49499 24.0423 6.24403 23.8761 6.05106C23.7099 5.8581 23.4739 5.73886 23.2199 5.71948H23.1455H21.3719C19.6599 5.71948 18.018 6.39934 16.8074 7.60948C15.5968 8.81963 14.9167 10.4609 14.9167 12.1724V20.0708C14.9167 20.1774 14.9378 20.2831 14.9786 20.3816C15.0194 20.4801 15.0793 20.5697 15.1547 20.6451C15.2301 20.7205 15.3197 20.7803 15.4183 20.8211C15.5168 20.8619 15.6225 20.8829 15.7292 20.8829H18.042C18.1487 20.8829 18.2544 20.8619 18.353 20.8211C18.4515 20.7803 18.5411 20.7205 18.6165 20.6451C18.692 20.5697 18.7518 20.4801 18.7926 20.3816C18.8335 20.2831 18.8545 20.1774 18.8545 20.0708V12.8801C18.8545 11.9211 19.2356 11.0013 19.914 10.3232C20.5924 9.64503 21.5125 9.26406 22.4718 9.26406H23.2328C23.4191 9.26387 23.5985 9.19336 23.7351 9.06664C23.8717 8.93993 23.9553 8.76634 23.9694 8.5806L24.1067 6.74897Z" fill="#F7F7F7"/>
<path id="Vector_9" d="M9.9685 5.72095H13.1367C13.2442 5.72058 13.3496 5.75049 13.4409 5.80725C13.5322 5.86402 13.6056 5.94533 13.6528 6.04189C13.7 6.13844 13.719 6.24632 13.7076 6.35318C13.6963 6.46004 13.6551 6.56154 13.5887 6.64606L8.7527 12.8544C8.65222 12.9809 8.59753 13.1376 8.59753 13.2991C8.59753 13.4606 8.65222 13.6173 8.7527 13.7438L13.5887 19.9522C13.6353 20.0114 13.6697 20.0793 13.69 20.1519C13.7102 20.2245 13.7159 20.3004 13.7068 20.3752C13.6976 20.45 13.6737 20.5222 13.6365 20.5878C13.5993 20.6533 13.5495 20.7109 13.49 20.7572C13.3885 20.8347 13.2644 20.8769 13.1367 20.8773H9.96564C9.72055 20.8773 9.47872 20.8211 9.25877 20.713C9.03882 20.6049 8.8466 20.4479 8.69692 20.2539L3.97678 14.2485C3.76868 13.9834 3.65558 13.6561 3.65558 13.3191C3.65558 12.9821 3.76868 12.6549 3.97678 12.3897L8.69692 6.34293C8.84704 6.14881 9.03978 5.99176 9.26025 5.88392C9.48073 5.77607 9.72305 5.72032 9.9685 5.72095Z" fill="#F7F7F7"/>
<path id="Vector_10" d="M3.13103 0H0.802424C0.359258 0 0 0.359131 0 0.802141V20.075C0 20.518 0.359258 20.8771 0.802424 20.8771H3.13103C3.57419 20.8771 3.93345 20.518 3.93345 20.075V0.802141C3.93345 0.359131 3.57419 0 3.13103 0Z" fill="#F7F7F7"/>
</g>
</svg>
