<svg width="60" height="60" viewBox="0 0 60 60" fill="none" xmlns="http://www.w3.org/2000/svg">
<path id="Vector" fill-rule="evenodd" clip-rule="evenodd" d="M39.2624 36.062C39.3977 35.7734 39.5197 35.477 39.627 35.1771L42.0192 34.8073C42.3157 34.763 42.5864 34.6124 42.7815 34.3834C42.9767 34.1543 43.0831 33.8621 43.0814 33.5603V29.8201C43.083 29.5185 42.9764 29.2265 42.7813 28.9976C42.5862 28.7686 42.3156 28.6182 42.0192 28.5739L39.627 28.2041C39.52 27.903 39.3984 27.6076 39.2624 27.3177L40.6941 25.3538C40.8726 25.1113 40.9582 24.8123 40.9353 24.5114C40.9123 24.2105 40.7824 23.9281 40.5693 23.7159L37.9408 21.0702C37.73 20.8559 37.4495 20.7253 37.1507 20.7023C36.8519 20.6794 36.5549 20.7656 36.3142 20.9453L34.3623 22.387C34.0749 22.2501 33.7804 22.1273 33.4817 22.0194L33.1151 19.6115C33.0709 19.3131 32.9213 19.0408 32.6937 18.8444C32.4662 18.648 32.1759 18.5408 31.8762 18.5424H28.1603C27.8607 18.5408 27.5706 18.6481 27.3433 18.8445C27.116 19.0409 26.9667 19.3132 26.9228 19.6115L26.5554 22.0194C26.2553 22.1273 25.963 22.2501 25.6741 22.387L23.7236 20.9453C23.4827 20.7657 23.1855 20.6794 22.8865 20.7024C22.5875 20.7253 22.3068 20.8559 22.0956 21.0702L19.4679 23.7159C19.2549 23.9282 19.1251 24.2106 19.1021 24.5114C19.0792 24.8122 19.1647 25.1113 19.3431 25.3538L20.7754 27.3177C20.6401 27.6071 20.5181 27.9035 20.4102 28.2041L18.0172 28.5739C17.7209 28.6185 17.4504 28.7689 17.2552 28.9978C17.0601 29.2266 16.9533 29.5186 16.9544 29.8201V33.5603C16.9531 33.8623 17.0601 34.1545 17.2555 34.3835C17.451 34.6126 17.7219 34.763 18.0186 34.8073L20.4095 35.1771C20.5181 35.4784 20.6401 35.7734 20.7754 36.0642L19.3431 38.0274C19.1647 38.2697 19.0791 38.5687 19.102 38.8695C19.1249 39.1702 19.2548 39.4525 19.4679 39.6646L22.0956 42.311C22.3066 42.5251 22.5871 42.6555 22.8858 42.6784C23.1845 42.7014 23.4814 42.6153 23.7222 42.4359L25.6741 40.9949C25.963 41.1304 26.2553 41.2546 26.5554 41.3618L26.9228 43.7697C26.9665 44.068 27.1158 44.3404 27.3432 44.5369C27.5705 44.7333 27.8607 44.8405 28.1603 44.8388H31.8762C32.176 44.8405 32.4663 44.7334 32.6939 44.537C32.9215 44.3406 33.071 44.0681 33.1151 43.7697L33.4817 41.3618C33.7818 41.2546 34.0749 41.1311 34.3637 40.9949L36.3142 42.4359C36.555 42.6154 36.8519 42.7016 37.1507 42.6787C37.4494 42.6557 37.7299 42.5252 37.9408 42.311L40.5693 39.6646C40.7825 39.4526 40.9125 39.1702 40.9354 38.8695C40.9583 38.5687 40.8727 38.2697 40.6941 38.0274L39.2624 36.062ZM30.0175 25.8633C31.1628 25.863 32.2824 26.2046 33.2347 26.8449C34.187 27.4851 34.9294 28.3952 35.3677 29.4602C35.8061 30.5251 35.9209 31.6969 35.6976 32.8275C35.4742 33.9581 34.9227 34.9966 34.1129 35.8117C33.3031 36.6268 32.2714 37.1819 31.1481 37.4067C30.0249 37.6315 28.8606 37.516 27.8026 37.0747C26.7446 36.6335 25.8404 35.8863 25.2043 34.9277C24.5682 33.9692 24.2288 32.8423 24.2291 31.6895C24.2314 30.145 24.8419 28.6644 25.927 27.5722C27.012 26.4801 28.483 25.8655 30.0175 25.8633ZM30.0175 36.0289C29.1651 36.0287 28.3318 35.7742 27.623 35.2974C26.9143 34.8206 26.3619 34.143 26.0358 33.3502C25.7096 32.5575 25.6243 31.6852 25.7906 30.8436C25.957 30.0021 26.3675 29.2291 26.9703 28.6224C27.5731 28.0156 28.341 27.6024 29.1771 27.435C30.0132 27.2676 30.8798 27.3534 31.6674 27.6817C32.4551 28.01 33.1283 28.566 33.6019 29.2794C34.0756 29.9928 34.3285 30.8315 34.3287 31.6895C34.3276 32.8401 33.873 33.9431 33.0647 34.7567C32.2565 35.5702 31.1606 36.0278 30.0175 36.0289ZM25.034 12.5778C25.0338 11.7426 25.2423 10.9207 25.6403 10.1878C26.0384 9.45487 26.6132 8.83454 27.3119 8.38388C28.0308 9.10467 29.0042 9.50937 30.0189 9.50937C31.0336 9.50937 32.007 9.10467 32.7259 8.38388C33.4241 8.83506 33.9985 9.45551 34.3964 10.1883C34.7943 10.9211 35.0029 11.7427 35.0032 12.5778C33.66 13.8675 31.8749 14.5871 30.0186 14.5871C28.1622 14.5871 26.3772 13.8675 25.034 12.5778ZM30.0175 8.02115C29.55 8.02073 29.0932 7.88082 28.7046 7.61909C28.3161 7.35736 28.0134 6.98557 27.8348 6.55071C27.6562 6.11586 27.6097 5.63746 27.7012 5.176C27.7926 4.71454 28.0179 4.29074 28.3487 3.95815C28.6794 3.62557 29.1006 3.39914 29.5592 3.3075C30.0177 3.21585 30.493 3.2631 30.9248 3.44327C31.3567 3.62344 31.7258 3.92844 31.9855 4.31972C32.2452 4.711 32.3838 5.17099 32.3838 5.64154C32.383 6.27242 32.1337 6.87725 31.6905 7.32336C31.2473 7.76946 30.6464 8.02041 30.0196 8.02115H30.0175ZM37.2593 7.29852C37.2608 6.17886 37.0059 5.07392 36.5146 4.06941C36.0232 3.06491 35.3085 2.18784 34.426 1.50624C33.5435 0.824641 32.5168 0.356841 31.4257 0.139128C30.3345 -0.0785864 29.2082 -0.0403616 28.1341 0.250837C27.06 0.542035 26.067 1.07838 25.2321 1.81826C24.3972 2.55814 23.7428 3.48168 23.3198 4.51722C22.8968 5.55275 22.7164 6.67246 22.7928 7.78948C22.8692 8.9065 23.2001 9.9908 23.7601 10.9583C24.1599 9.38953 25.1308 8.02934 26.4804 7.1475C26.2324 6.55925 26.1331 5.91833 26.1912 5.28201C26.2494 4.64568 26.4632 4.03377 26.8137 3.50093C27.1641 2.96809 27.6402 2.53092 28.1995 2.22848C28.7587 1.92605 29.3837 1.76776 30.0186 1.76776C30.6534 1.76776 31.2784 1.92605 31.8377 2.22848C32.3969 2.53092 32.873 2.96809 33.2235 3.50093C33.5739 4.03377 33.7878 4.64568 33.8459 5.28201C33.9041 5.91833 33.8047 6.55925 33.5568 7.1475C34.9069 8.02885 35.8783 9.38921 36.2778 10.9583C36.9222 9.8478 37.261 8.58455 37.2593 7.29852ZM51.4541 40.5722L59.261 45.1063L51.4541 49.6418L43.6521 45.1063L51.4541 40.5722ZM42.9124 46.3956V55.4652L50.7151 60V50.9311L42.9124 46.3956ZM52.1945 60L60 55.4652V46.3956L52.1945 50.9311V60ZM2.8332 48.6587H4.31115V51.6354C4.31079 51.6789 4.29346 51.7205 4.2629 51.7512C4.23235 51.782 4.19101 51.7994 4.14779 51.7998H0.0287456L2.8332 48.6587ZM3.4565 59.9076C3.14217 59.9074 2.83494 59.8135 2.57365 59.6376C2.31236 59.4617 2.10875 59.2118 1.98856 58.9195C1.86836 58.6271 1.83699 58.3055 1.8984 57.9952C1.9598 57.6849 2.11124 57.3999 2.33355 57.1763C2.55586 56.9526 2.83907 56.8003 3.14737 56.7386C3.45567 56.6769 3.77522 56.7087 4.06561 56.8298C4.356 56.9509 4.60419 57.1559 4.77881 57.419C4.95342 57.6821 5.04662 57.9914 5.04662 58.3077C5.04644 58.7321 4.87883 59.139 4.58064 59.439C4.28245 59.739 3.8781 59.9076 3.4565 59.9076ZM6.8541 57.5639V48.6587H5.7891V51.6354C5.78873 52.0735 5.61571 52.4935 5.30801 52.8034C5.0003 53.1132 4.58305 53.2876 4.14779 53.2881H0V57.5639H0.478861C0.64397 56.8947 1.02684 56.3004 1.56647 55.8756C2.1061 55.4509 2.77145 55.2201 3.4565 55.2201C4.14155 55.2201 4.80689 55.4509 5.34652 55.8756C5.88615 56.3004 6.26902 56.8947 6.43413 57.5639H6.8541ZM17.4297 59.9076C17.1154 59.9074 16.8082 59.8135 16.5469 59.6376C16.2856 59.4617 16.082 59.2118 15.9618 58.9195C15.8416 58.6271 15.8102 58.3055 15.8716 57.9952C15.933 57.6849 16.0845 57.3999 16.3068 57.1763C16.5291 56.9526 16.8123 56.8003 17.1206 56.7386C17.4289 56.6769 17.7484 56.7087 18.0388 56.8298C18.3292 56.9509 18.5774 57.1559 18.752 57.419C18.9266 57.6821 19.0198 57.9914 19.0198 58.3077C19.0195 58.732 18.8518 59.1389 18.5536 59.4388C18.2555 59.7388 17.8513 59.9074 17.4297 59.9076ZM23.7061 57.5639V46.6461C23.7056 46.6026 23.6882 46.561 23.6577 46.5302C23.6272 46.4993 23.586 46.4817 23.5427 46.481H8.49751C8.45417 46.4815 8.41276 46.4991 8.3821 46.5299C8.35146 46.5608 8.33399 46.6025 8.33345 46.6461V57.5639H14.4528C14.6176 56.8946 15.0003 56.3 15.5399 55.8751C16.0795 55.4502 16.7449 55.2193 17.4301 55.2193C18.1152 55.2193 18.7806 55.4502 19.3202 55.8751C19.8598 56.3 20.2425 56.8946 20.4073 57.5639H23.7061ZM38.928 53.9522C38.9597 54.0446 38.973 54.1424 38.9671 54.2401C38.9613 54.3377 38.9363 54.4332 38.8937 54.5211C38.8511 54.609 38.7917 54.6875 38.7189 54.7523C38.6461 54.8171 38.5614 54.8668 38.4695 54.8985C35.7496 55.8388 32.8933 56.3172 30.0175 56.3141C29.4608 56.3141 28.8957 56.2965 28.3412 56.2598C28.1541 56.2365 27.9829 56.1421 27.8627 55.996C27.7425 55.8498 27.6823 55.6629 27.6945 55.4736C27.7067 55.2842 27.7903 55.1067 27.9282 54.9774C28.0662 54.848 28.248 54.7767 28.4365 54.7778C28.9595 54.8117 29.4882 54.8294 30.0175 54.8294C32.7313 54.8316 35.4265 54.3792 37.9927 53.4907C38.0844 53.4587 38.1815 53.4454 38.2784 53.4513C38.3753 53.4573 38.4701 53.4824 38.5573 53.5253C38.6445 53.5681 38.7225 53.6279 38.7867 53.7012C38.8509 53.7744 38.9001 53.8597 38.9315 53.9522H38.928ZM5.54231 30.1892C5.52982 34.1283 6.46588 38.0118 8.27035 41.5072C8.31513 41.5938 8.34249 41.6885 8.35086 41.7858C8.35923 41.8831 8.34846 41.981 8.31915 42.0741C8.28985 42.1672 8.24258 42.2536 8.18007 42.3282C8.11755 42.4029 8.04102 42.4644 7.95485 42.5093C7.84996 42.5647 7.73325 42.5935 7.61481 42.5933C7.47927 42.5933 7.34631 42.5559 7.23045 42.4851C7.1146 42.4143 7.0203 42.3128 6.95786 42.1917C3.83049 36.0942 3.2098 29.0037 5.22971 22.4497C7.24961 15.8957 11.7482 10.4036 17.755 7.15808C17.9278 7.0645 18.1304 7.04383 18.3183 7.1006C18.5062 7.15738 18.6639 7.28695 18.7569 7.46083C18.8499 7.6347 18.8704 7.83863 18.814 8.02775C18.7576 8.21687 18.6289 8.37569 18.4561 8.46927C14.5518 10.5738 11.2883 13.7058 9.01393 17.531C6.73958 21.3563 5.5397 25.7313 5.54231 30.1892ZM53.6521 36.6273C55.0901 31.2516 54.6803 25.5445 52.4892 20.4329C50.2981 15.3213 46.4544 11.1054 41.5824 8.46998C41.4969 8.42364 41.4213 8.3608 41.3598 8.28504C41.2984 8.20929 41.2525 8.1221 41.2245 8.02845C41.1681 7.83934 41.1887 7.63541 41.2816 7.46153C41.3746 7.28766 41.5324 7.15808 41.7203 7.10131C41.9082 7.04453 42.1108 7.06521 42.2835 7.15879C47.4496 9.95262 51.5251 14.4228 53.8479 19.843C56.1706 25.2631 56.6039 31.3146 55.0775 37.014C55.0363 37.1719 54.9443 37.3115 54.816 37.4112C54.6876 37.511 54.5301 37.5651 54.3679 37.5652C54.301 37.5644 54.2344 37.5557 54.1695 37.5391C53.9815 37.4861 53.8218 37.3607 53.7249 37.1901C53.6281 37.0194 53.6019 36.8172 53.6521 36.6273Z" fill="url(#paint0_linear_0_257)"/>
<defs>
<linearGradient id="paint0_linear_0_257" x1="7.21373" y1="3.89352" x2="117.286" y2="111.148" gradientUnits="userSpaceOnUse">
<stop offset="0.371719" stop-color="#3BBDE1"/>
<stop offset="1" stop-color="#3EC3DF"/>
</linearGradient>
</defs>
</svg>
