<svg xmlns="http://www.w3.org/2000/svg" width="24" height="24" viewBox="0 0 24 24" fill="none">
  <path d="M23.1506 5.11765C22.3353 5.48824 21.4565 5.73176 20.5459 5.84824C21.4776 5.28706 22.1976 4.39765 22.5365 3.32824C21.6576 3.85765 20.6835 4.22824 19.6565 4.44C18.82 3.52941 17.6447 3 16.3106 3C13.8224 3 11.7894 5.03294 11.7894 7.54235C11.7894 7.90235 11.8318 8.25177 11.9059 8.58C8.13647 8.38941 4.78 6.57882 2.54588 3.83647C2.15412 4.50353 1.93176 5.28706 1.93176 6.11294C1.93176 7.69059 2.72588 9.08824 3.95412 9.88235C3.20235 9.88235 2.50353 9.67059 1.88941 9.35294V9.38471C1.88941 11.5871 3.45647 13.4294 5.53176 13.8424C4.86548 14.0247 4.16598 14.0501 3.48824 13.9165C3.77582 14.8191 4.33904 15.6089 5.09872 16.1749C5.85841 16.7408 6.77636 17.0545 7.72353 17.0718C6.11796 18.3428 4.12776 19.0299 2.08 19.02C1.72 19.02 1.36 18.9988 1 18.9565C3.01176 20.2482 5.40471 21 7.96706 21C16.3106 21 20.8953 14.0753 20.8953 8.07176C20.8953 7.87059 20.8953 7.68 20.8847 7.47882C21.7741 6.84353 22.5365 6.03882 23.1506 5.11765Z" fill="#99B2CB"/>
</svg>