<svg width="60" height="53" viewBox="0 0 60 53" fill="none" xmlns="http://www.w3.org/2000/svg">
<g id="Group 3684">
<path id="Vector" fill-rule="evenodd" clip-rule="evenodd" d="M35.1116 42.4035V48.1363H24.8878V42.4035H35.1116ZM1.87494 0H58.1251C59.1577 0 60 0.835759 60 1.86041V33.2612H0V1.86041C0 0.835759 0.842283 0 1.87494 0ZM17.8448 12.3414C18.8055 12.3414 19.6724 12.7504 20.299 13.4115C20.9119 14.0591 21.2913 14.9478 21.2913 15.9249C21.2913 16.8402 20.9585 17.6773 20.4127 18.3119C20.942 18.5511 21.4317 18.8623 21.8699 19.2326C22.5198 19.7823 23.0532 20.4639 23.4292 21.2357C24.0325 20.2532 24.3803 19.0995 24.3803 17.8648C24.3803 16.0744 23.649 14.4532 22.4664 13.2797C21.2837 12.1063 19.6498 11.3806 17.8454 11.3806C16.041 11.3806 14.4072 12.1063 13.2245 13.2797C12.0419 14.4532 11.3106 16.0744 11.3106 17.8648C11.3106 19.1069 11.6625 20.2682 12.2734 21.2541C12.65 20.4747 13.1869 19.7864 13.8415 19.2326C14.275 18.8657 14.7598 18.5572 15.2837 18.3187C14.7345 17.6834 14.3996 16.8429 14.3996 15.9249C14.3996 14.9478 14.779 14.0591 15.3919 13.4115C16.0164 12.7504 16.884 12.3414 17.8448 12.3414ZM18.031 19.5017C17.9694 19.5051 17.9071 19.5071 17.8448 19.5071C17.7852 19.5071 17.7256 19.5058 17.6667 19.5024C16.6395 19.5445 15.7041 19.9311 14.9755 20.5474C14.2996 21.1195 13.7984 21.8874 13.5621 22.7619C14.7091 23.7498 16.2068 24.3484 17.8448 24.3484C19.491 24.3484 20.9948 23.7444 22.1438 22.7476C21.9062 21.8792 21.407 21.1162 20.7345 20.5474C20.0032 19.9284 19.063 19.5418 18.031 19.5017ZM19.0274 14.5979C18.7227 14.2765 18.3043 14.0774 17.8448 14.0774C17.3853 14.0774 16.9669 14.2765 16.6621 14.5979C16.3444 14.9329 16.1479 15.4017 16.1479 15.9243C16.1479 16.4468 16.3444 16.9149 16.6621 17.2506C16.934 17.538 17.2976 17.7276 17.6996 17.7643C17.7509 17.7629 17.803 17.7622 17.855 17.7622C17.9016 17.7622 17.9482 17.7629 17.9947 17.7636C18.3953 17.7256 18.7562 17.5367 19.0274 17.2499C19.3451 16.9149 19.5417 16.4461 19.5417 15.9236C19.541 15.4017 19.3444 14.9336 19.0274 14.5979ZM11.9864 12.0506C10.4875 13.5379 9.55957 15.5934 9.55957 17.8635C9.55957 20.1044 10.4635 22.136 11.9289 23.6187C11.9481 23.6418 11.9686 23.6642 11.9899 23.6853C12.6685 24.3545 13.4642 24.9083 14.3435 25.3153L14.3442 25.316C14.3715 25.3289 14.3989 25.3411 14.4263 25.3534L14.4428 25.3609C14.4633 25.3704 14.4845 25.3792 14.5051 25.3887C14.7112 25.4791 14.9221 25.5613 15.1364 25.6347L15.1556 25.6415L15.2152 25.6612L15.2693 25.6789L15.2905 25.6856C16.1013 25.9466 16.9628 26.0879 17.855 26.0879C18.9719 26.0879 20.0429 25.8664 21.0242 25.4648C22.0404 25.049 22.9546 24.4408 23.7202 23.6853C23.7681 23.6384 23.8085 23.5874 23.8435 23.5331C25.2603 22.0579 26.1299 20.0609 26.1299 17.8628C26.1299 15.5927 25.2028 13.5373 23.7031 12.0499C22.2041 10.5625 20.1326 9.6418 17.8448 9.6418C15.5569 9.6418 13.4854 10.5632 11.9864 12.0506ZM20.3682 6.70373L20.1826 5.56357C20.1374 5.28498 19.9936 5.04309 19.7889 4.86982C19.5821 4.6952 19.3198 4.59192 19.039 4.59192H16.6505C16.3697 4.59192 16.1075 4.6952 15.9007 4.86982C15.6959 5.04309 15.5521 5.28498 15.5069 5.56357L15.3213 6.70373C14.6708 6.84778 14.0415 7.04687 13.4382 7.29488C12.8212 7.54833 12.2323 7.85273 11.6776 8.20198L10.7306 7.52387C10.4984 7.35739 10.2259 7.28673 9.96222 7.30779C9.6931 7.32953 9.43357 7.44165 9.23225 7.64142L7.54357 9.31701C7.34224 9.51678 7.22857 9.7743 7.20734 10.0413C7.18611 10.3029 7.25733 10.5734 7.4251 10.8037L8.10852 11.7434C7.75654 12.2945 7.44975 12.8782 7.19433 13.4904C6.94438 14.089 6.74374 14.7141 6.59857 15.3596L5.4495 15.5437C5.16806 15.5886 4.92496 15.7313 4.75034 15.9344C4.57435 16.1397 4.47026 16.3999 4.47026 16.6785V19.0485C4.47026 19.2863 4.54627 19.5112 4.67775 19.6994C4.69898 19.7327 4.72363 19.7653 4.75034 19.7959C4.92291 19.9964 5.166 20.1384 5.4495 20.1832L6.59857 20.3674C6.74374 21.0129 6.94438 21.6373 7.19433 22.2359C7.44975 22.8481 7.75654 23.4325 8.10852 23.9829L7.4251 24.9226C7.25733 25.1529 7.18611 25.4234 7.20734 25.685C7.22925 25.952 7.34224 26.2095 7.54357 26.4093L9.23225 28.0849C9.43357 28.2847 9.6931 28.3974 9.96222 28.4185C10.2259 28.4396 10.4984 28.3689 10.7306 28.2024L11.6776 27.5243C12.233 27.8736 12.8212 28.178 13.4382 28.4314C14.0415 28.6794 14.6715 28.8785 15.322 29.0226L15.5076 30.1627C15.5528 30.442 15.6966 30.6832 15.9013 30.8565C16.1082 31.0311 16.3704 31.1344 16.6512 31.1344H19.0397C19.3205 31.1344 19.5827 31.0311 19.7895 30.8565C19.9943 30.6832 20.1381 30.4413 20.1833 30.1627L20.3689 29.0226C21.0194 28.8785 21.6487 28.6794 22.252 28.4314C22.869 28.178 23.4579 27.8736 24.0133 27.5243L24.9603 28.2024C25.1925 28.3689 25.465 28.4396 25.7287 28.4185C25.9971 28.3968 26.2566 28.2847 26.4586 28.0849L28.1473 26.4093L28.146 26.4079L28.1473 26.4066C28.3486 26.2061 28.4623 25.95 28.4836 25.6856C28.5048 25.424 28.4336 25.1536 28.2658 24.9233L27.5824 23.9836C27.9344 23.4325 28.2411 22.8488 28.4966 22.2366C28.7465 21.638 28.9471 21.0129 29.0923 20.3674L30.2414 20.1832C30.5249 20.1377 30.768 19.9964 30.9406 19.7959L30.9392 19.7946L30.9406 19.7925C31.1165 19.5873 31.2206 19.3271 31.2206 19.0485V16.6785C31.2206 16.3999 31.1165 16.1397 30.9406 15.9344C30.7659 15.7313 30.5222 15.5886 30.2414 15.5437L29.0923 15.3596C28.9471 14.7141 28.7465 14.0897 28.4966 13.4904C28.2411 12.8782 27.9344 12.2938 27.5824 11.7434L28.2658 10.8037C28.4336 10.5734 28.5048 10.3029 28.4836 10.0413C28.4651 9.81439 28.3788 9.59288 28.2268 9.40806C28.2028 9.37612 28.1761 9.34555 28.1466 9.31701L26.458 7.64142C26.2566 7.44165 25.9971 7.32886 25.728 7.30779C25.4643 7.28673 25.1918 7.35739 24.9597 7.52387L24.0126 8.20198C23.4572 7.85273 22.8683 7.54833 22.2513 7.29488C21.648 7.04687 21.0187 6.84846 20.3682 6.70373ZM21.5885 8.89573C20.9146 8.61918 20.2032 8.41466 19.4643 8.29235C19.1027 8.23392 18.8035 7.95126 18.7432 7.57279L18.5405 6.32798H17.1483L16.9511 7.54017C16.9059 7.91389 16.6176 8.22781 16.2246 8.29168C15.4857 8.4133 14.7742 8.61783 14.1004 8.89505C13.4142 9.17704 12.7657 9.5358 12.1652 9.96183C11.8693 10.1704 11.4612 10.1799 11.1503 9.95844L10.117 9.21848L9.13227 10.1956L9.85334 11.1863C10.0903 11.4805 10.1129 11.9058 9.8821 12.2279C9.45343 12.8238 9.09118 13.4673 8.80699 14.1474C8.5276 14.816 8.32217 15.522 8.19891 16.2558C8.14002 16.6146 7.85515 16.9115 7.47372 16.9713L6.2192 17.1725V18.5538L7.44085 18.7495C7.81748 18.7944 8.13385 19.0804 8.19822 19.4705C8.3208 20.2036 8.52692 20.9103 8.80631 21.5782C9.0905 22.259 9.45206 22.9025 9.88142 23.4984C10.0916 23.7919 10.1012 24.1969 9.87799 24.5054L9.13227 25.5307L10.117 26.5078L11.1154 25.7923C11.4119 25.5572 11.8406 25.5348 12.1652 25.7638C12.7657 26.1891 13.4142 26.5486 14.0997 26.8299C14.7735 27.1071 15.485 27.311 16.2246 27.4333C16.5861 27.4917 16.8854 27.7744 16.9456 28.1528L17.1483 29.3976H18.5405L18.7377 28.1854C18.7829 27.8117 19.0712 27.4978 19.4643 27.4339C20.2032 27.3123 20.9146 27.1078 21.5885 26.8306C22.2746 26.5486 22.9231 26.1898 23.5237 25.7638C23.8195 25.5552 24.2276 25.5457 24.5385 25.7672L25.5719 26.5071L26.5566 25.53L25.8355 24.5394C25.5986 24.2451 25.576 23.8198 25.8067 23.4977C26.2354 22.9018 26.5977 22.2584 26.8812 21.5782C27.1605 20.9096 27.366 20.2036 27.4892 19.4698C27.5481 19.111 27.833 18.8141 28.2144 18.7543L29.469 18.5532V17.1718L28.2473 16.9761C27.8707 16.9312 27.5543 16.6452 27.4899 16.2552C27.3674 15.5213 27.1612 14.8153 26.8818 14.1474C26.5977 13.4666 26.2361 12.8231 25.8067 12.2272C25.5965 11.9337 25.5869 11.5287 25.8102 11.2202L26.5559 10.1949L25.5712 9.21781L24.5728 9.9333C24.2762 10.1684 23.8476 10.1908 23.523 9.96183C22.9231 9.53716 22.2746 9.17772 21.5885 8.89573ZM54.6546 26.2462H35.28C34.7966 26.2462 34.4049 26.6349 34.4049 27.1146C34.4049 27.5943 34.7966 27.983 35.28 27.983H54.6553C55.1387 27.983 55.5304 27.5943 55.5304 27.1146C55.5297 26.6349 55.138 26.2462 54.6546 26.2462ZM54.6546 20.0793H35.28C34.7966 20.0793 34.4049 20.4679 34.4049 20.9476C34.4049 21.4274 34.7966 21.816 35.28 21.816H54.6553C55.1387 21.816 55.5304 21.4274 55.5304 20.9476C55.5304 20.4679 55.138 20.0793 54.6546 20.0793ZM54.6546 13.9123H35.28C34.7966 13.9123 34.4049 14.301 34.4049 14.7807C34.4049 15.2604 34.7966 15.6491 35.28 15.6491H54.6553C55.1387 15.6491 55.5304 15.2604 55.5304 14.7807C55.5304 14.301 55.138 13.9123 54.6546 13.9123ZM54.6546 7.7447H35.28C34.7966 7.7447 34.4049 8.13336 34.4049 8.61307C34.4049 9.09278 34.7966 9.48144 35.28 9.48144H54.6553C55.1387 9.48144 55.5304 9.09278 55.5304 8.61307C55.5304 8.13336 55.138 7.7447 54.6546 7.7447ZM18.548 49.6243H41.4513C42.3867 49.6243 43.1523 50.384 43.1523 51.3122C43.1523 52.2403 42.3867 53 41.4513 53H18.548C17.6126 53 16.847 52.2403 16.847 51.3122C16.847 50.384 17.6126 49.6243 18.548 49.6243ZM0 34.7492H60V39.2392C60 40.1626 59.1577 40.9155 58.1251 40.9155H1.87494C0.842283 40.9155 0 40.1626 0 39.2392V34.7492Z" fill="url(#paint0_linear_0_253)"/>
</g>
<defs>
<linearGradient id="paint0_linear_0_253" x1="30" y1="0" x2="75" y2="57.5" gradientUnits="userSpaceOnUse">
<stop stop-color="#31B4D3"/>
<stop offset="1" stop-color="#31B5D0"/>
</linearGradient>
</defs>
</svg>
