<svg width="57" height="110" viewBox="0 0 57 110" fill="none" xmlns="http://www.w3.org/2000/svg">
<g id="Group 3741">
<g id="Group 6">
<path id="Vector" d="M23.9101 108.954L3.74176 108.705C2.74784 108.688 1.8012 108.279 1.10862 107.568C0.416038 106.857 0.0340124 105.901 0.0462517 104.909C0.0544455 104.075 0.349129 103.268 0.881234 102.625L39.5311 54.7915L2.07224 6.05421C1.46785 5.26988 1.20037 4.27832 1.32835 3.29734C1.45633 2.31637 1.96948 1.4261 2.75497 0.822276C3.42305 0.313521 4.24135 0.0405545 5.08186 0.0461473L25.233 0.294672C27.0392 0.320632 28.8167 0.752471 30.4326 1.55809C32.0484 2.36372 33.4614 3.52244 34.5665 4.94796L55.3514 31.7309C56.0817 32.6699 56.473 33.8271 56.4614 35.0154L55.9687 74.9621C55.951 76.1503 55.5313 77.2976 54.7781 78.2182L33.3729 104.515C32.2328 105.918 30.7895 107.046 29.151 107.815C27.5125 108.584 25.7207 108.973 23.9101 108.954Z" fill="#32BFBD"/>
<path id="Vector_2" d="M39.5306 54.7913L55.9499 75.0643C55.9239 76.2249 55.5044 77.3424 54.7603 78.2349L54.3942 78.6928L20.5457 78.2753L39.5306 54.7913Z" fill="#009F9B" fill-opacity="0.4"/>
</g>
</g>
</svg>
