<svg xmlns="http://www.w3.org/2000/svg" width="24" height="24" viewBox="0 0 24 24" fill="none">
  <g clip-path="url(#clip0_18_51)">
    <path d="M9.28571 15.8571L15.9586 12L9.28571 8.14286V15.8571ZM24.1486 5.79C24.3157 6.39429 24.4314 7.20429 24.5086 8.23286C24.5986 9.26143 24.6371 10.1486 24.6371 10.92L24.7143 12C24.7143 14.8157 24.5086 16.8857 24.1486 18.21C23.8271 19.3671 23.0814 20.1129 21.9243 20.4343C21.32 20.6014 20.2143 20.7171 18.5171 20.7943C16.8457 20.8843 15.3157 20.9229 13.9014 20.9229L11.8571 21C6.47 21 3.11429 20.7943 1.79 20.4343C0.632857 20.1129 -0.112857 19.3671 -0.434286 18.21C-0.601429 17.6057 -0.717143 16.7957 -0.794286 15.7671C-0.884286 14.7386 -0.922857 13.8514 -0.922857 13.08L-1 12C-1 9.18429 -0.794286 7.11429 -0.434286 5.79C-0.112857 4.63286 0.632857 3.88714 1.79 3.56571C2.39429 3.39857 3.5 3.28286 5.19714 3.20571C6.86857 3.11571 8.39857 3.07714 9.81286 3.07714L11.8571 3C17.2443 3 20.6 3.20571 21.9243 3.56571C23.0814 3.88714 23.8271 4.63286 24.1486 5.79Z" fill="#99B2CB"/>
  </g>
  <defs>
    <clipPath id="clip0_18_51">
      <rect width="24" height="24" fill="white"/>
    </clipPath>
  </defs>
</svg>